<?xml version="1.0" encoding="utf-8"?>
<!-- Generator: Adobe Illustrator 26.5.0, SVG Export Plug-In . SVG Version: 6.00 Build 0)  -->
<svg version="1.1" id="Layer_1" xmlns="http://www.w3.org/2000/svg" xmlns:xlink="http://www.w3.org/1999/xlink" x="0px" y="0px"
	 viewBox="0 0 100 100" style="enable-background:new 0 0 100 100;" xml:space="preserve">
<style type="text/css">
	.st0{fill:#FFFFFF;stroke:#444444;stroke-width:3;stroke-linecap:round;stroke-linejoin:round;stroke-miterlimit:10;}
	.st1{fill:#F97D83;stroke:#444444;stroke-width:3;stroke-linecap:round;stroke-linejoin:round;stroke-miterlimit:10;}
	.st2{fill:none;stroke:#444444;stroke-width:3;stroke-linecap:round;stroke-linejoin:round;stroke-miterlimit:10;}
	.st3{fill:#FFFFFF;}
	.st4{fill:url(#SVGID_1_);stroke:#444444;stroke-width:3;stroke-linecap:round;stroke-linejoin:round;stroke-miterlimit:10;}
	.st5{fill:none;stroke:#FFFFFF;stroke-width:3;stroke-linecap:round;stroke-linejoin:round;stroke-miterlimit:10;}
</style>
<g>
	<path class="st0" d="M95.8,38.4v49.9c0,5.2-4.3,9.5-9.6,9.5H12.8c-5.3,0-9.6-4.3-9.6-9.5V38.4"/>
	<path class="st1" d="M43.7,72.1c-1.3-0.8-2.4-1.7-3.6-2.6c-2-1.5-4.1-3.1-6.1-4.6c-2.5-1.9-5.1-3.8-7.7-5.8c-2.6-2-5.3-4-7.9-6
		c-2.3-1.7-4.6-3.5-6.9-5.2c-1.6-1.2-3.1-2.3-4.7-3.5c-0.4-0.3-0.8-0.6-1.2-0.9c-3.2-3.2-3.2-8.4,0-11.6c1.5-1.1,3-2.3,4.6-3.4
		c3.6-2.7,7.1-5.3,10.6-7.9c4-3,8-6,12.1-9c3.3-2.5,6.5-5.2,10-7.4c2.6-1.7,6-2.6,9.1-2c2.8,0.6,5.2,2.4,7.4,4.1
		c2.5,2,5,3.9,7.6,5.9c4.4,3.3,8.8,6.6,13.3,9.9c3.5,2.7,7.1,5.3,10.6,8c0.8,0.6,1.9,1.2,2.6,2c3.2,3.2,3.2,8.4,0,11.6
		c-0.8,0.6-1.5,1.2-2.3,1.7c-2,1.5-3.9,2.9-5.9,4.4c-2.6,2-5.3,4-7.9,5.9c-2.8,2.1-5.6,4.2-8.4,6.3c-2.5,1.9-5,3.7-7.4,5.6
		c-2,1.5-4,3.1-6.1,4.6c-1.8,1.2-3.9,2.2-6.2,2c-1-0.1-1.9-0.4-2.8-0.7C45.5,73.1,44.6,72.7,43.7,72.1z"/>
	<path class="st2" d="M95.8,38.4"/>
	<path class="st2" d="M3.2,38.4"/>
	<polygon class="st3" points="78.3,57.3 77.6,50.7 23.4,50.7 23.4,63.2 45.1,78.9 58.7,73.9 	"/>
	<path class="st3" d="M61.5,42.3"/>
	<path class="st0" d="M22.6,56.3V32.7c0-5.2,4.3-9.5,9.6-9.5h36.7c5.3,0,9.6,4.3,9.6,9.5V55"/>
	
		<linearGradient id="SVGID_1_" gradientUnits="userSpaceOnUse" x1="46.6928" y1="72.7327" x2="57.2696" y2="31.8949" gradientTransform="matrix(1 0 0 -1 0 102)">
		<stop  offset="0" style="stop-color:#FFFFFF"/>
		<stop  offset="0.1459" style="stop-color:#FCBDC0"/>
		<stop  offset="0.2618" style="stop-color:#FA8F94"/>
		<stop  offset="0.3198" style="stop-color:#F97D83"/>
		<stop  offset="0.4892" style="stop-color:#F97D83"/>
		<stop  offset="0.6828" style="stop-color:#F7545D"/>
	</linearGradient>
	<path class="st4" d="M63.9,33.3c-4.5-2.2-9.5-0.8-13,2.4c-0.8,0.7-2,0.8-2.9,0c-1.8-1.6-3.8-2.9-6.1-3.5c-4.6-1.2-9.9,1.7-10.5,6.6
		c-0.7,5,3,9.9,6.3,13.2c3.4,3.4,7.3,6.5,11,9.6c0.3,0.3,0.6,0.5,1,0.5c0.2,0,0.4-0.2,0.6-0.3c5.2-4.2,10.6-8.5,14.5-14
		C67.6,43.6,69.8,36.2,63.9,33.3z"/>
	<path class="st2" d="M43.8,72.1c-1.3-0.8-2.4-1.7-3.6-2.6c-2-1.5-4.1-3.1-6.1-4.6c-2.5-1.9-5.1-3.8-7.7-5.8c-2.6-2-5.3-4-7.9-6
		c-2.3-1.7-4.6-3.5-6.9-5.2c-1.6-1.2-3.1-2.3-4.7-3.5c-0.4-0.3-0.8-0.6-1.2-0.9c-3.2-3.2-3.2-8.4,0-11.6c1.5-1.1,3-2.3,4.6-3.4
		c3.6-2.7,7.1-5.3,10.6-7.9c4-3,8-6,12.1-9c3.3-2.5,6.5-5.2,10-7.4c2.6-1.7,6-2.6,9.1-2c2.8,0.6,5.2,2.4,7.4,4.1
		c2.5,2,5,3.9,7.6,5.9c4.4,3.3,8.8,6.6,13.3,9.9c3.5,2.7,7.1,5.3,10.6,8c0.8,0.6,1.9,1.2,2.6,2c3.2,3.2,3.2,8.4,0,11.6
		c-0.8,0.6-1.5,1.2-2.3,1.7c-2,1.5-3.9,2.9-5.9,4.4c-2.6,2-5.3,4-7.9,5.9c-2.8,2.1-5.6,4.2-8.4,6.3c-2.5,1.9-5,3.7-7.4,5.6
		c-2,1.5-4,3.1-6.1,4.6c-1.8,1.2-3.9,2.2-6.2,2c-1-0.1-1.9-0.4-2.8-0.7C45.5,73.1,44.6,72.7,43.8,72.1z"/>
</g>
<line class="st5" x1="3.2" y1="59.7" x2="3.2" y2="70.9"/>
<line class="st2" x1="3.2" y1="68.6" x2="3.2" y2="79.9"/>
<line class="st2" x1="3.2" y1="63" x2="3.2" y2="65.3"/>
<line class="st2" x1="3.2" y1="57.5" x2="3.2" y2="59.7"/>
</svg>
